<svg width="20" height="18" viewBox="0 0 20 18" fill="none" xmlns="http://www.w3.org/2000/svg">
<path d="M1.66665 13.1665H4.69831L9.46665 17.1407C9.61646 17.2652 9.80517 17.3334 9.99998 17.3332C10.1222 17.3333 10.2429 17.3063 10.3533 17.254C10.4967 17.1869 10.618 17.0803 10.703 16.9468C10.788 16.8132 10.8332 16.6582 10.8333 16.4999V1.49987C10.8334 1.34145 10.7884 1.18629 10.7034 1.05257C10.6185 0.918844 10.4972 0.8121 10.3538 0.744845C10.2103 0.67759 10.0507 0.652611 9.89359 0.672835C9.73647 0.69306 9.58837 0.757651 9.46665 0.859037L4.69831 4.8332H1.66665C1.44563 4.8332 1.23367 4.921 1.07739 5.07728C0.92111 5.23356 0.833313 5.44552 0.833313 5.66654V12.3332C0.833313 12.5542 0.92111 12.7662 1.07739 12.9225C1.23367 13.0787 1.44563 13.1665 1.66665 13.1665ZM2.49998 6.49987H4.99998C5.19479 6.50002 5.3835 6.43191 5.53331 6.30737L9.16665 3.27904V14.7207L5.53331 11.6924C5.3835 11.5678 5.19479 11.4997 4.99998 11.4999H2.49998V6.49987ZM19.1666 8.99987C19.1649 10.5464 18.5497 12.0291 17.4562 13.1227C16.3626 14.2163 14.8799 14.8314 13.3333 14.8332C13.1123 14.8332 12.9003 14.7454 12.7441 14.5891C12.5878 14.4328 12.5 14.2209 12.5 13.9999C12.5 13.7789 12.5878 13.5669 12.7441 13.4106C12.9003 13.2543 13.1123 13.1665 13.3333 13.1665C14.4384 13.1665 15.4982 12.7276 16.2796 11.9461C17.061 11.1647 17.5 10.1049 17.5 8.99987C17.5 7.8948 17.061 6.83499 16.2796 6.05359C15.4982 5.27219 14.4384 4.8332 13.3333 4.8332C13.1123 4.8332 12.9003 4.74541 12.7441 4.58913C12.5878 4.43285 12.5 4.22088 12.5 3.99987C12.5 3.77886 12.5878 3.5669 12.7441 3.41062C12.9003 3.25433 13.1123 3.16654 13.3333 3.16654C14.8799 3.1683 16.3626 3.78345 17.4562 4.87703C18.5497 5.97061 19.1649 7.45332 19.1666 8.99987ZM15 8.99987C15 8.55784 14.8244 8.13392 14.5118 7.82136C14.1993 7.5088 13.7753 7.3332 13.3333 7.3332C13.1123 7.3332 12.9003 7.24541 12.7441 7.08913C12.5878 6.93285 12.5 6.72088 12.5 6.49987C12.5 6.27886 12.5878 6.0669 12.7441 5.91062C12.9003 5.75433 13.1123 5.66654 13.3333 5.66654C14.2174 5.66654 15.0652 6.01773 15.6903 6.64285C16.3155 7.26797 16.6666 8.11582 16.6666 8.99987C16.6666 9.88393 16.3155 10.7318 15.6903 11.3569C15.0652 11.982 14.2174 12.3332 13.3333 12.3332C13.1123 12.3332 12.9003 12.2454 12.7441 12.0891C12.5878 11.9328 12.5 11.7209 12.5 11.4999C12.5 11.2789 12.5878 11.0669 12.7441 10.9106C12.9003 10.7543 13.1123 10.6665 13.3333 10.6665C13.7753 10.6665 14.1993 10.4909 14.5118 10.1784C14.8244 9.86582 15 9.4419 15 8.99987Z" fill="#010101"/>
</svg>
